<svg width="229" height="33" viewBox="0 0 229 33" fill="none" xmlns="http://www.w3.org/2000/svg">
<path d="M15.2355 27.0727C10.7786 27.0727 7.40077 25.9233 5.10196 23.6245C2.80315 21.3257 1.65374 17.983 1.65374 13.5965C1.65374 9.21002 2.86179 5.86735 5.27789 3.56854C7.69399 1.26972 11.236 0.120314 15.904 0.120314C17.1707 0.120314 18.4726 0.202415 19.8097 0.366617C21.1702 0.530817 22.3783 0.753661 23.4338 1.03515C23.6215 3.00556 23.8443 4.8235 24.1024 6.48897L23.8912 7.05194C21.5924 6.39514 19.2936 6.06674 16.9948 6.06674C14.391 6.06674 12.4675 6.71181 11.2243 8.00196C9.98108 9.26866 9.35946 11.2156 9.35946 13.8428C9.35946 16.4231 9.93416 18.2997 11.0836 19.4726C12.233 20.6454 14.0392 21.2319 16.5022 21.2319C17.722 21.2319 18.8362 21.1146 19.8449 20.88C19.8918 19.801 19.9152 19.0269 19.9152 18.5577C19.9152 18.0651 19.8918 17.3028 19.8449 16.2707H15.1651L14.9892 15.8484C15.2238 14.0657 15.3763 12.7286 15.4466 11.8372H25.0172L25.2987 12.2946C25.2518 15.1095 25.2283 17.2441 25.2283 18.6985C25.2283 20.1059 25.2518 22.2405 25.2987 25.1023L25.1228 25.5597C23.8091 26.0289 22.261 26.3925 20.4782 26.6505C18.6955 26.932 16.9479 27.0727 15.2355 27.0727ZM28.5429 26.0875C28.7071 24.727 28.7892 21.7831 28.7892 17.2559C28.7892 11.9545 28.7071 8.74087 28.5429 7.61492L28.6837 7.1575H35.5098L35.7209 7.57973C35.627 8.30691 35.6036 9.18656 35.6505 10.2187L35.8264 10.2539C36.3894 9.17483 37.1166 8.29518 38.008 7.61492C38.8993 6.93466 39.9784 6.59453 41.2451 6.59453C41.8549 6.59453 42.3476 6.64144 42.7229 6.73527C42.7932 8.14271 42.9457 10.2539 43.1803 13.0687L42.9692 13.4558C42.3827 13.315 41.6438 13.2447 40.7525 13.2447C39.3216 13.2447 38.1487 13.7607 37.2339 14.7929C36.319 15.8015 35.8616 17.1972 35.8616 18.98C35.8616 22.0763 35.9437 24.4455 36.1079 26.0875L35.9672 26.5098H28.6837L28.5429 26.0875ZM64.3009 17.2207L51.5636 19.0152C51.8451 20.0707 52.3729 20.8448 53.147 21.3374C53.9445 21.8066 55.0587 22.0412 56.4896 22.0412C58.7181 22.0412 60.841 21.6658 62.8583 20.9152L63.0342 21.3726C62.7762 22.9208 62.5651 24.469 62.4009 26.0172C61.2749 26.3456 60.0434 26.6036 58.7064 26.7913C57.3927 26.9789 56.1378 27.0727 54.9415 27.0727C51.3056 27.0727 48.5611 26.2165 46.7079 24.5042C44.8783 22.7918 43.9634 20.2701 43.9634 16.9392C43.9634 13.6552 44.89 11.1101 46.7431 9.30384C48.5963 7.49763 51.1766 6.59453 54.484 6.59453C61.099 6.59453 64.4299 9.97238 64.4768 16.7281L64.3009 17.2207ZM58.2138 14.9336C58.1903 13.8076 57.9088 12.928 57.3693 12.2946C56.8532 11.6613 56.0791 11.3446 55.047 11.3446C53.9211 11.3446 53.0297 11.7551 52.3729 12.5761C51.7161 13.3737 51.3525 14.5231 51.2821 16.0244L58.2138 14.9336ZM86.3705 17.2207L73.6332 19.0152C73.9146 20.0707 74.4424 20.8448 75.2165 21.3374C76.0141 21.8066 77.1283 22.0412 78.5592 22.0412C80.7876 22.0412 82.9105 21.6658 84.9278 20.9152L85.1038 21.3726C84.8457 22.9208 84.6346 24.469 84.4704 26.0172C83.3445 26.3456 82.113 26.6036 80.7759 26.7913C79.4623 26.9789 78.2073 27.0727 77.011 27.0727C73.3751 27.0727 70.6306 26.2165 68.7775 24.5042C66.9478 22.7918 66.033 20.2701 66.033 16.9392C66.033 13.6552 66.9596 11.1101 68.8127 9.30384C70.6658 7.49763 73.2461 6.59453 76.5536 6.59453C83.1685 6.59453 86.4995 9.97238 86.5464 16.7281L86.3705 17.2207ZM80.2833 14.9336C80.2598 13.8076 79.9784 12.928 79.4388 12.2946C78.9228 11.6613 78.1487 11.3446 77.1166 11.3446C75.9906 11.3446 75.0992 11.7551 74.4424 12.5761C73.7856 13.3737 73.422 14.5231 73.3517 16.0244L80.2833 14.9336ZM98.0602 27.0727C95.3391 27.0727 93.3687 26.4863 92.1489 25.3134C90.9292 24.1406 90.3193 22.1936 90.3193 19.4726V12.1187H87.3285C87.3519 11.5557 87.3636 10.723 87.3636 9.62052C87.3636 8.51803 87.3519 7.69702 87.3285 7.1575H90.3193C90.2958 6.05501 90.2372 5.10499 90.1433 4.30744L90.2489 3.77965L97.1805 2.26666L97.4268 2.79445V7.1575H103.338L103.444 7.57973L103.303 8.70568C103.115 10.1835 102.998 11.3212 102.951 12.1187H97.4268V18.1003C97.4268 19.2966 97.6379 20.1294 98.0602 20.5985C98.4824 21.0442 99.1861 21.2671 100.171 21.2671C100.687 21.2671 101.192 21.2201 101.684 21.1263C102.2 21.0325 102.845 20.88 103.62 20.6689L103.795 21.1263C103.561 22.5807 103.338 24.2813 103.127 26.2283C101.508 26.7913 99.8195 27.0727 98.0602 27.0727Z" fill="white"/>
<path d="M112.607 24.3153C112.607 26.2142 111.068 27.7536 109.169 27.7536C107.27 27.7536 105.73 26.2142 105.73 24.3153C105.73 22.4164 107.27 20.877 109.169 20.877C111.068 20.877 112.607 22.4164 112.607 24.3153Z" fill="#FE3838"/>
<path d="M122.061 0.246094V27.7528" stroke="white" stroke-width="0.859586"/>
<g clip-path="url(#clip0_1_5842)">
<path d="M217.18 11.4077C217.08 11.5654 216.948 11.6915 216.848 11.8176C215.985 12.858 215.121 13.8985 214.258 14.9704C214.092 15.1911 213.926 15.2227 213.66 15.0966C213.826 14.9074 213.959 14.7182 214.125 14.529C214.955 13.5201 215.752 12.5427 216.582 11.5338C216.715 11.3447 216.881 11.2501 217.18 11.4077Z" fill="#EF3E3E"/>
<path d="M139.315 24.6174V17.492H145.79C146.62 17.492 147.351 17.2397 147.915 16.7038C148.48 16.1678 148.745 15.5057 148.745 14.7175C148.745 13.9292 148.48 13.2356 147.915 12.7312C147.351 12.2267 146.653 11.9745 145.823 11.9745H139.315V8.72702C139.315 7.9388 139.581 7.30823 140.145 6.80377C140.71 6.26778 141.374 6.01556 142.171 6.01556H145.79C146.62 6.01556 147.317 5.76333 147.882 5.22734C148.446 4.69135 148.712 4.02925 148.712 3.24104C148.712 2.45282 148.446 1.75919 147.882 1.25473C147.317 0.750276 146.62 0.498047 145.79 0.498047H142.204C139.747 0.498047 137.688 1.28626 136.028 2.86269C134.367 4.43912 133.537 6.3939 133.537 8.72702V24.6174C133.537 25.4057 133.803 26.0678 134.367 26.6037C134.865 27.1082 135.563 27.3604 136.426 27.3604C137.256 27.3604 137.953 27.1082 138.518 26.6037C139.049 26.0993 139.315 25.4372 139.315 24.6174Z" fill="#FE3838"/>
<path d="M136.426 27.6129C135.496 27.6129 134.733 27.3292 134.168 26.7617C133.537 26.2257 133.238 25.5005 133.238 24.6177V8.75882C133.238 7.56073 133.438 6.45723 133.869 5.44831C134.301 4.4394 134.932 3.52507 135.795 2.70533C136.658 1.88558 137.621 1.28654 138.684 0.876666C139.747 0.435265 140.942 0.246094 142.204 0.246094H145.823C146.72 0.246094 147.517 0.529851 148.114 1.06584C148.712 1.63335 149.011 2.35851 149.011 3.24131C149.011 4.12411 148.712 4.84927 148.114 5.41679C147.517 5.9843 146.753 6.26806 145.823 6.26806H142.204C141.473 6.26806 140.876 6.52029 140.377 6.96169C139.879 7.43462 139.647 8.00213 139.647 8.69576V11.6595H145.856C146.753 11.6595 147.55 11.9432 148.148 12.4792C148.745 13.0467 149.044 13.7719 149.044 14.6547C149.044 15.5375 148.745 16.2626 148.148 16.8301C147.55 17.4292 146.786 17.7129 145.823 17.7129H139.614V24.5862C139.614 25.469 139.315 26.1941 138.717 26.7617C138.086 27.3607 137.323 27.6129 136.426 27.6129ZM142.204 0.78208C139.813 0.78208 137.821 1.53877 136.227 3.05214C134.633 4.56551 133.836 6.48876 133.836 8.72729V24.6177C133.836 25.3429 134.068 25.9419 134.567 26.3833C135.031 26.8247 135.662 27.0769 136.426 27.0769C137.19 27.0769 137.821 26.8562 138.319 26.3833C138.817 25.9419 139.049 25.3429 139.049 24.6177V17.2085H145.79C146.587 17.2085 147.218 16.9563 147.716 16.4833C148.214 16.0104 148.446 15.4114 148.446 14.6862C148.446 13.961 148.214 13.362 147.716 12.9206C147.218 12.4792 146.587 12.227 145.823 12.227H139.049V8.72729C139.049 8.31742 139.116 7.90755 139.282 7.56073C139.448 7.21392 139.647 6.89863 139.979 6.61487C140.577 6.04736 141.34 5.7636 142.204 5.7636H145.823C146.587 5.7636 147.218 5.5429 147.716 5.06997C148.214 4.59704 148.446 3.998 148.446 3.27284C148.446 2.54768 148.214 1.94864 147.716 1.50724C147.218 1.06584 146.587 0.813609 145.823 0.813609H142.204V0.78208Z" fill="#FE3838"/>
<path d="M170.361 19.6373V19.3851H170.294V3.7469C170.294 2.95868 170.029 2.29658 169.497 1.79212C168.966 1.28766 168.269 1.03543 167.439 1.03543C166.642 1.03543 165.944 1.28766 165.38 1.82365C164.815 2.35964 164.55 2.99021 164.55 3.77842V8.75995C164.55 9.54816 164.284 10.1787 163.753 10.6832C163.188 11.2192 162.524 11.4714 161.727 11.4714C160.897 11.4714 160.233 11.2192 159.702 10.6832C159.137 10.1472 158.872 9.51663 158.872 8.75995V3.7469C158.872 2.95868 158.606 2.26505 158.041 1.76059C157.477 1.25614 156.78 1.00391 155.949 1.00391C155.119 1.00391 154.422 1.25614 153.891 1.76059C153.359 2.26505 153.094 2.92715 153.094 3.71537V8.69689C153.094 11.03 153.924 12.9848 155.584 14.5612C157.244 16.1376 159.303 16.9259 161.76 16.9259C162.723 16.9259 163.686 16.7682 164.583 16.4529V19.6058C164.583 20.394 164.317 21.0246 163.786 21.529C163.221 22.065 162.557 22.3173 161.76 22.3173C160.93 22.3173 160.266 22.065 159.735 21.529C159.17 20.993 158.905 20.3625 158.905 19.6058V19.259C158.905 18.4708 158.639 17.7771 158.075 17.2727C157.51 16.7682 156.813 16.516 155.983 16.516C155.153 16.516 154.455 16.7682 153.924 17.2727C153.393 17.7771 153.127 18.4392 153.127 19.2274V19.5743C153.127 21.9074 153.957 23.8622 155.617 25.4386C157.278 27.015 159.336 27.8032 161.794 27.8032C164.218 27.8032 166.276 27.015 167.937 25.4386C169.531 23.8937 170.361 21.9389 170.361 19.6373Z" fill="#FE3838"/>
<path d="M161.727 28.1503C160.465 28.1503 159.303 27.9611 158.241 27.5513C157.178 27.1414 156.215 26.5424 155.352 25.7226C154.488 24.9029 153.858 23.9885 153.426 22.9796C152.994 21.9707 152.795 20.8672 152.795 19.6691V19.3223C152.795 18.4395 153.094 17.7143 153.691 17.1784C154.289 16.6108 155.053 16.3271 155.949 16.3271C156.846 16.3271 157.643 16.6108 158.241 17.1468C158.838 17.7143 159.137 18.4395 159.137 19.3223V19.6691C159.137 20.3628 159.403 20.9303 159.868 21.4032C160.366 21.8761 160.964 22.0968 161.694 22.0968C162.425 22.0968 163.022 21.8761 163.52 21.4032C164.018 20.9303 164.251 20.3628 164.251 19.6691V16.8946C163.421 17.1468 162.591 17.2729 161.694 17.2729C160.432 17.2729 159.27 17.0838 158.207 16.6739C157.145 16.264 156.182 15.665 155.319 14.8452C154.455 14.0255 153.824 13.1112 153.393 12.1023C152.961 11.0933 152.762 9.98984 152.762 8.79175V3.74717C152.762 2.86437 153.061 2.13921 153.658 1.60323C154.256 1.03571 155.02 0.751953 155.916 0.751953C156.813 0.751953 157.61 1.03571 158.207 1.5717C158.805 2.13921 159.104 2.86437 159.104 3.74717V8.72869C159.104 9.42232 159.37 9.98984 159.835 10.4628C160.333 10.9357 160.93 11.1564 161.661 11.1564C162.391 11.1564 162.989 10.9357 163.487 10.4628C163.985 9.98984 164.218 9.42232 164.218 8.72869V3.74717C164.218 3.30577 164.284 2.92743 164.45 2.58061C164.616 2.2338 164.849 1.88698 165.147 1.60323C165.778 1.03571 166.542 0.751953 167.405 0.751953C168.335 0.751953 169.099 1.03571 169.663 1.60323C170.261 2.17074 170.56 2.8959 170.56 3.74717V19.1016H170.626V19.6376C170.626 20.8042 170.427 21.9392 169.995 22.9166C169.564 23.9255 168.933 24.8398 168.07 25.6596C167.206 26.4793 166.243 27.0783 165.181 27.4882C164.151 27.9296 162.989 28.1503 161.727 28.1503ZM155.949 16.8C155.186 16.8 154.555 17.0207 154.09 17.4936C153.625 17.935 153.359 18.5341 153.359 19.2593V19.6061C153.359 21.8761 154.156 23.7678 155.75 25.2812C157.344 26.7946 159.37 27.5513 161.727 27.5513C164.052 27.5513 166.077 26.7631 167.671 25.2497C169.265 23.7048 170.062 21.8131 170.062 19.5745H169.995V3.74717C169.995 3.02201 169.763 2.42297 169.265 1.98157C168.8 1.54017 168.169 1.28794 167.405 1.28794C166.675 1.28794 166.044 1.50864 165.546 1.98157C165.048 2.4545 164.782 3.02201 164.782 3.74717V8.72869C164.782 9.13857 164.716 9.54844 164.55 9.89525C164.417 10.2421 164.184 10.5574 163.886 10.8411C163.288 11.4086 162.524 11.6924 161.661 11.6924C161.229 11.6924 160.797 11.6293 160.432 11.4717C160.067 11.314 159.735 11.1249 159.436 10.8096C158.838 10.2421 158.539 9.51691 158.539 8.69716V3.74717C158.539 3.02201 158.307 2.42297 157.809 1.98157C157.311 1.54017 156.68 1.28794 155.916 1.28794C155.153 1.28794 154.522 1.50864 154.057 1.98157C153.592 2.42297 153.326 3.02201 153.326 3.74717V8.72869C153.326 10.9988 154.123 12.8905 155.717 14.4038C157.311 15.9172 159.336 16.6739 161.694 16.6739C162.624 16.6739 163.554 16.5163 164.417 16.2325L164.782 16.1064V19.6376C164.782 20.0475 164.716 20.4573 164.55 20.8042C164.417 21.151 164.184 21.4663 163.886 21.75C163.321 22.3175 162.591 22.6328 161.727 22.6328C161.296 22.6328 160.864 22.5698 160.499 22.4121C160.133 22.2545 159.801 22.0653 159.502 21.75C158.905 21.1825 158.606 20.4573 158.606 19.6376V19.2908C158.606 18.5656 158.373 17.9666 157.875 17.5252C157.344 17.0522 156.713 16.8 155.949 16.8Z" fill="#FE3838"/>
<path d="M193.572 4.4076C190.849 1.82225 187.462 0.498047 183.51 0.498047H177.733C176.936 0.498047 176.272 0.781804 175.707 1.31779C175.143 1.85378 174.844 2.48435 174.844 3.24104V24.649C174.844 25.4372 175.109 26.0993 175.641 26.6037C176.172 27.1082 176.869 27.3604 177.699 27.3604C178.53 27.3604 179.227 27.1082 179.791 26.6037C180.289 26.1623 180.555 25.5633 180.622 24.8697C180.655 25.5948 180.92 26.1939 181.418 26.6668C181.95 27.1713 182.647 27.4235 183.477 27.4235C187.462 27.4235 190.849 26.1308 193.572 23.5455C196.295 20.9286 197.656 17.7442 197.656 13.9608C197.689 10.1773 196.295 6.99294 193.572 4.4076ZM180.622 24.3967V6.01556H183.477C185.868 6.01556 187.86 6.77224 189.454 8.28562C191.048 9.83052 191.845 11.6907 191.845 13.9608C191.845 16.1993 191.048 18.091 189.421 19.6044C187.794 21.1493 185.802 21.906 183.477 21.906C182.647 21.906 181.917 22.1582 181.385 22.6942C180.954 23.1987 180.688 23.7346 180.622 24.3967Z" fill="#FE3838"/>
<path d="M183.51 27.7075C182.581 27.7075 181.817 27.4238 181.252 26.8562C180.987 26.604 180.788 26.3203 180.622 26.005C180.489 26.2887 180.256 26.5725 180.024 26.7932C179.426 27.3607 178.662 27.6129 177.733 27.6129C176.803 27.6129 176.039 27.3292 175.475 26.7617C174.877 26.1941 174.578 25.469 174.578 24.6177V3.24131C174.578 2.4531 174.91 1.72794 175.508 1.12889C176.139 0.56138 176.869 0.246094 177.733 0.246094H183.51C185.536 0.246094 187.396 0.592909 189.122 1.25501C190.816 1.91711 192.41 2.92603 193.804 4.2187C195.199 5.5429 196.228 7.02474 196.926 8.6327C197.623 10.2407 197.988 12.0378 197.988 13.961C197.988 15.8843 197.623 17.6499 196.926 19.2894C196.228 20.8973 195.199 22.3792 193.804 23.7034V23.7349H193.771C192.376 25.0276 190.816 26.0365 189.122 26.6986C187.429 27.3922 185.536 27.7075 183.51 27.7075ZM180.356 24.8699H180.92C180.954 25.532 181.186 26.068 181.651 26.4779C182.116 26.9193 182.747 27.1715 183.51 27.1715C187.395 27.1715 190.749 25.8789 193.406 23.3566C196.062 20.8027 197.424 17.6499 197.424 13.961C197.424 10.2722 196.062 7.11933 193.406 4.56551C190.683 2.07475 187.362 0.78208 183.51 0.78208H177.733C177.035 0.78208 176.438 1.03431 175.906 1.50724C175.375 2.0117 175.143 2.57921 175.143 3.24131V24.6492C175.143 25.3744 175.375 25.9734 175.873 26.4148C176.338 26.8562 176.969 27.1085 177.733 27.1085C178.496 27.1085 179.127 26.8878 179.625 26.4148C180.057 26.0365 180.289 25.5005 180.356 24.8699ZM180.92 24.4285L180.356 24.397V5.7636H183.51C184.739 5.7636 185.868 5.95277 186.897 6.36264C187.927 6.74099 188.857 7.34003 189.687 8.12825C190.517 8.91646 191.148 9.79926 191.546 10.7767C191.945 11.754 192.177 12.826 192.177 13.9926C192.177 15.1276 191.978 16.1996 191.546 17.177C191.115 18.1543 190.484 19.0371 189.687 19.8254C188.857 20.6136 187.927 21.2126 186.897 21.591C185.868 21.9693 184.739 22.19 183.544 22.19C182.747 22.19 182.149 22.4107 181.684 22.9152C181.219 23.325 180.987 23.8295 180.92 24.4285ZM180.92 6.29959V22.8836C181.02 22.7575 181.12 22.6629 181.219 22.5368C181.784 21.9378 182.547 21.654 183.51 21.654C185.768 21.654 187.728 20.8973 189.255 19.447C190.816 17.9652 191.579 16.1365 191.579 13.9926C191.579 11.7856 190.816 10.02 189.255 8.50659C187.728 7.05627 185.768 6.29959 183.477 6.29959H180.92Z" fill="#FE3838"/>
<path fill-rule="evenodd" clip-rule="evenodd" d="M220.9 10.9346C221 10.9661 221.066 11.0922 221 11.1868C220.915 11.3363 220.839 11.4858 220.764 11.6338L220.764 11.6338C220.633 11.8915 220.505 12.1445 220.336 12.3849C220.236 12.574 220.236 12.7002 220.369 12.8893C220.518 13.0843 220.678 13.2793 220.843 13.4799L220.843 13.48C220.971 13.6361 221.102 13.7957 221.232 13.9613C221.299 14.0559 221.266 14.182 221.199 14.2451C221.084 14.3179 220.972 14.3907 220.861 14.4627L220.861 14.4628L220.861 14.4628C220.587 14.6403 220.32 14.8132 220.037 14.9702C219.838 15.0963 219.771 15.2224 219.805 15.4747C219.875 15.7887 219.913 16.0868 219.952 16.403L219.952 16.4031C219.968 16.5313 219.985 16.6625 220.004 16.7989C220.037 16.8935 219.937 17.0196 219.805 17.0196L219.717 17.0252C219.251 17.0547 218.812 17.0826 218.344 17.0826C218.144 17.0826 218.078 17.1772 218.011 17.3349C217.845 17.7763 217.679 18.1861 217.48 18.6275C217.447 18.7221 217.314 18.7852 217.215 18.7221L217.015 18.6275C216.933 18.5886 216.849 18.5497 216.764 18.5103L216.764 18.5103C216.505 18.3901 216.236 18.2655 215.986 18.1231C215.753 17.9654 215.587 18.0285 215.388 18.1861L215.222 18.3128C214.936 18.5308 214.631 18.7636 214.326 18.9744C214.226 19.0374 214.093 19.0059 214.06 18.9428C213.986 18.8287 213.912 18.7171 213.839 18.6065L213.839 18.6063L213.839 18.6063C213.649 18.3197 213.464 18.0405 213.296 17.7447C213.197 17.5871 213.097 17.5556 212.931 17.5871C212.466 17.6817 212.001 17.7447 211.47 17.8078C211.37 17.8393 211.238 17.7447 211.238 17.6186C211.221 17.3864 211.213 17.1617 211.205 16.941C211.196 16.7122 211.188 16.4875 211.171 16.2629C211.171 16.0422 211.138 15.9476 210.905 15.8845C210.474 15.7269 210.042 15.5693 209.577 15.3801C209.478 15.3486 209.411 15.2224 209.478 15.1279C209.57 14.9644 209.658 14.801 209.744 14.6395C209.874 14.3961 210.002 14.1572 210.142 13.9298C210.241 13.7721 210.241 13.646 210.109 13.4884C209.81 13.1416 209.511 12.7947 209.212 12.4164C209.146 12.3218 209.179 12.1957 209.245 12.1326C209.644 11.8805 210.009 11.6598 210.374 11.4391L210.374 11.439C210.607 11.3129 210.64 11.1868 210.607 10.9346C210.536 10.6205 210.498 10.3224 210.459 10.0061L210.459 10.0061L210.459 10.0061C210.443 9.87792 210.427 9.74676 210.407 9.61035C210.374 9.51576 210.474 9.38965 210.607 9.38965C210.835 9.37415 211.072 9.36627 211.305 9.35851H211.305L211.305 9.35851C211.545 9.3505 211.782 9.34262 212.001 9.32659C212.234 9.32659 212.333 9.232 212.4 9.07436C212.566 8.66449 212.732 8.25462 212.931 7.81322C212.964 7.71863 213.097 7.65557 213.197 7.71863C213.264 7.75067 213.332 7.78067 213.398 7.81019C213.593 7.89687 213.779 7.97938 213.927 8.09697C214.458 8.47532 214.923 8.47532 215.388 7.97086C215.545 7.79728 215.722 7.68221 215.904 7.56429L215.904 7.56428C215.953 7.53227 216.003 7.50006 216.052 7.4664C216.152 7.40334 216.285 7.43487 216.318 7.52946L216.318 7.52949C216.584 7.90782 216.849 8.28616 217.082 8.66449C217.181 8.82213 217.314 8.91672 217.513 8.88519C217.823 8.82213 218.133 8.7871 218.443 8.75207C218.598 8.73455 218.753 8.71704 218.908 8.69602C219.008 8.66449 219.14 8.75907 219.14 8.88519C219.157 9.10589 219.165 9.33448 219.174 9.56306C219.182 9.79164 219.19 10.0202 219.207 10.2409C219.207 10.4616 219.306 10.5562 219.506 10.6193C219.979 10.5912 220.373 10.7383 220.759 10.8822C220.806 10.8998 220.853 10.9174 220.9 10.9346ZM216.55 11.439C216.716 11.2183 216.418 10.9976 216.252 11.1868L216.252 11.1868C216.218 11.2183 216.218 11.2183 216.218 11.2498C215.665 11.95 215.096 12.635 214.522 13.3259L214.522 13.3259L214.522 13.326C214.269 13.6306 214.015 13.9363 213.761 14.2451C213.695 14.3396 213.628 14.4027 213.529 14.4973C213.363 14.6865 213.628 14.9387 213.828 14.7495C213.861 14.718 213.861 14.718 213.894 14.6549L213.894 14.6549C214.376 14.0323 214.881 13.431 215.388 12.8262L215.388 12.8262C215.754 12.3897 216.122 11.9514 216.484 11.5021L216.55 11.439ZM217.182 14.3393C217.015 15.1906 216.318 15.5689 215.654 15.1906C215.388 15.033 215.222 14.7807 215.189 14.4654C215.156 14.024 215.222 13.5826 215.588 13.2674C215.92 13.0151 216.285 12.9521 216.683 13.1412C217.082 13.3304 217.215 13.6457 217.215 14.0556V14.0556C217.215 14.1817 217.215 14.2763 217.182 14.3393ZM216.717 14.3078C216.717 14.2553 216.72 14.2027 216.724 14.1502C216.731 14.0451 216.739 13.94 216.717 13.8349C216.683 13.6142 216.551 13.5196 216.351 13.4565C216.119 13.425 215.953 13.4881 215.887 13.6772C215.787 13.9925 215.72 14.3078 215.72 14.6231C215.72 14.7492 215.92 14.9384 216.053 14.9384C216.219 14.9699 216.418 14.8438 216.517 14.7492C216.608 14.685 216.637 14.5772 216.667 14.4653C216.681 14.4123 216.695 14.3584 216.717 14.3078ZM213.23 12.9211C213.894 13.2994 214.592 12.9211 214.758 12.0698C214.791 12.0067 214.791 11.8806 214.791 11.786C214.791 11.3762 214.658 11.0609 214.26 10.8717C213.861 10.6825 213.496 10.7456 213.164 10.9978C212.799 11.3131 212.732 11.7545 212.765 12.1959C212.799 12.5112 212.965 12.7634 213.23 12.9211ZM214.3 11.8491C214.297 11.9016 214.293 11.9542 214.293 12.0067C214.271 12.0574 214.257 12.1113 214.243 12.1642C214.213 12.2762 214.184 12.3839 214.094 12.4481C213.994 12.5427 213.795 12.6688 213.629 12.6373C213.496 12.6373 213.297 12.4481 213.297 12.322C213.297 12.0067 213.363 11.6915 213.463 11.3762C213.529 11.187 213.695 11.1239 213.928 11.1555C214.127 11.2185 214.26 11.3131 214.293 11.5338C214.315 11.6389 214.308 11.744 214.3 11.8491Z" fill="#FE3838"/>
<path d="M207.188 25.1545C208.018 25.7535 209.446 26.0688 210.509 25.2175C213.132 26.1634 215.855 26.2895 218.578 25.5959C221.268 24.9023 223.492 23.515 225.252 21.4972C225.983 20.6459 226.614 19.7316 227.079 18.7227C227.875 17.0832 228.208 15.3491 228.241 13.5835C228.241 12.5115 228.075 11.4711 227.809 10.4306C227.377 8.88573 226.68 7.49847 225.717 6.23733C224.588 4.75549 223.16 3.62046 221.467 2.70613C219.408 1.63416 217.216 1.1297 214.925 1.19275C213.564 1.22428 212.269 1.44498 211.007 1.85486C208.085 2.80071 205.727 4.53479 204.1 7.02554C202.274 9.83159 201.709 12.8583 202.34 16.1058C202.672 17.6192 203.237 19.0064 204.1 20.2991C204.034 20.3937 204.001 20.4883 203.967 20.5513C203.934 20.6459 203.901 20.7405 203.901 20.8351C203.669 21.844 204.067 22.6953 204.764 23.2943C205.528 23.8933 206.358 24.5239 207.188 25.1545ZM205.761 14.4663C205.229 9.54783 209.015 5.16536 214.128 4.62937C219.375 4.09339 224.057 7.71917 224.555 12.7007C225.02 17.6192 221.301 22.0016 216.054 22.4746C210.808 23.0105 206.259 19.3848 205.761 14.4663Z" fill="#FE3838"/>
<path d="M215.091 26.6991C213.563 26.6991 212.069 26.4469 210.608 25.974C209.346 26.7307 207.752 26.4469 206.723 25.6902C205.959 25.1227 205.096 24.4606 204.266 23.7355C203.336 22.8842 202.937 21.7807 203.203 20.6457C203.236 20.5195 203.269 20.425 203.303 20.3304C202.506 19.0692 201.941 17.682 201.642 16.2316V16.2001C201.31 14.4976 201.277 12.8266 201.576 11.2501C201.875 9.70522 202.473 8.22338 203.369 6.80459L203.469 6.64695C205.195 4.03007 207.653 2.20142 210.774 1.1925C212.135 0.751099 213.53 0.530399 214.891 0.49887C216.12 0.467341 217.315 0.593456 218.444 0.877213C219.607 1.12944 220.736 1.57084 221.798 2.10683C222.695 2.57976 223.492 3.11574 224.255 3.71479C225.019 4.34536 225.683 5.03899 226.281 5.79568C226.812 6.45778 227.244 7.18294 227.609 7.90809C227.974 8.63325 228.273 9.42147 228.506 10.2412C228.805 11.3762 228.971 12.4797 228.971 13.5517V13.5832C228.937 15.5065 228.539 17.3351 227.742 19.0062C227.211 20.1097 226.58 21.0871 225.816 21.9383C223.923 24.0823 221.566 25.5326 218.776 26.2577H218.743C217.515 26.5415 216.286 26.6991 215.091 26.6991ZM210.342 24.3976L210.741 24.5552C213.198 25.438 215.755 25.5641 218.378 24.902H218.411C220.902 24.2714 223.027 22.9788 224.687 21.0555C225.351 20.2988 225.949 19.416 226.414 18.4387C227.111 16.9568 227.476 15.3173 227.51 13.5517C227.51 12.6059 227.377 11.5969 227.078 10.588C226.679 9.13771 226.015 7.84504 225.086 6.61542C224.023 5.25969 222.695 4.15619 221.068 3.30492C219.175 2.32753 217.083 1.82307 214.891 1.8546C213.663 1.88613 212.434 2.0753 211.206 2.45364C208.416 3.36797 206.225 4.97593 204.697 7.30905V7.34058C202.971 9.95745 202.439 12.8266 203.037 15.9164C203.336 17.3351 203.9 18.6594 204.697 19.889L204.93 20.2673L204.697 20.6457C204.664 20.6772 204.664 20.7402 204.664 20.7402C204.631 20.7718 204.631 20.8348 204.631 20.8979V20.9294C204.465 21.623 204.697 22.2221 205.262 22.7581C206.059 23.4517 206.922 24.1138 207.653 24.6498C208.151 25.0281 209.246 25.3749 210.043 24.7128L210.342 24.3976ZM215.124 23.231C214.094 23.231 213.098 23.0734 212.102 22.7896C210.84 22.4113 209.711 21.8122 208.682 21.024C207.653 20.2358 206.822 19.2584 206.225 18.1864C205.594 17.0514 205.195 15.8218 205.063 14.5291C204.93 13.2364 205.063 11.9438 205.461 10.7141C205.859 9.51605 206.457 8.44408 207.287 7.46669C208.117 6.48931 209.114 5.70109 210.276 5.10205C211.471 4.47148 212.733 4.09313 214.094 3.93549C215.489 3.80937 216.851 3.90396 218.179 4.31383C219.441 4.69218 220.636 5.29122 221.665 6.07943C222.695 6.86765 223.525 7.84504 224.156 8.94854C224.82 10.0836 225.218 11.3447 225.351 12.6374C225.484 13.9301 225.351 15.2227 224.919 16.4523C224.521 17.6504 223.923 18.7224 223.06 19.6998C222.23 20.6772 221.2 21.4654 220.071 22.0644C218.876 22.695 217.581 23.0418 216.186 23.1995C215.788 23.231 215.456 23.231 215.124 23.231ZM206.457 14.403C206.889 18.6594 210.707 21.8753 215.124 21.8753C215.389 21.8753 215.688 21.8753 215.987 21.8437C220.835 21.4023 224.289 17.4297 223.824 12.8266C223.591 10.588 222.495 8.60172 220.669 7.18294C218.843 5.76415 216.552 5.13358 214.194 5.35428C209.446 5.82721 205.992 9.8944 206.457 14.403Z" fill="#FE3838"/>
<path d="M203.732 25.6586L205.094 26.7306C205.957 27.4242 206.057 28.6223 205.326 29.4105L202.869 32.1535C202.139 32.9733 200.877 33.0678 200.047 32.3742L198.685 31.3022C197.822 30.6086 197.722 29.4105 198.453 28.6223L200.91 25.8793C201.607 25.0596 202.869 24.965 203.732 25.6586Z" fill="#FE3838"/>
</g>
<defs>
<clipPath id="clip0_1_5842">
<rect width="95.7319" height="32.6006" fill="white" transform="translate(133.236 0.246094)"/>
</clipPath>
</defs>
</svg>

